<?xml version="1.0" encoding="UTF-8" standalone="no"?>
<svg
   version="1.0"
   width="2267.7166"
   height="1611.9048"
   viewBox="0 0 453.54331 322.38096"
   id="svg23"
   sodipodi:docname="FlyingPete_Icons-Cessna152-withProp.svg"
   inkscape:version="1.1.1 (3bf5ae0d25, 2021-09-20)"
   xmlns:inkscape="http://www.inkscape.org/namespaces/inkscape"
   xmlns:sodipodi="http://sodipodi.sourceforge.net/DTD/sodipodi-0.dtd"
   xmlns="http://www.w3.org/2000/svg"
   xmlns:svg="http://www.w3.org/2000/svg">
  <defs
     id="defs27" />
  <sodipodi:namedview
     id="namedview25"
     pagecolor="#ffffff"
     bordercolor="#666666"
     borderopacity="1.0"
     inkscape:pageshadow="2"
     inkscape:pageopacity="0.0"
     inkscape:pagecheckerboard="0"
     showgrid="false"
     inkscape:snap-grids="true"
     inkscape:snap-others="false"
     inkscape:object-nodes="false"
     inkscape:zoom="0.23711989"
     inkscape:cx="-432.27078"
     inkscape:cy="913.04024"
     inkscape:window-width="1920"
     inkscape:window-height="991"
     inkscape:window-x="-9"
     inkscape:window-y="-9"
     inkscape:window-maximized="1"
     inkscape:current-layer="g21" />
  <g
     transform="translate(-5.140976e-8,63.244094)"
     id="g21">
    <path
       d="m 226.77166,-62.503295 2.9403,5.145549 1.47016,4.41047 h 34.5487 v 1.470157 l -33.81361,0.735078 0.73507,2.940314 h 5.14555 l 4.41046,1.470156 2.20525,2.940313 1.47014,5.145548 2.20525,25.727741 0.73507,22.052351 h 83.06386 l 114.67222,5.145549 4.41046,2.940312 2.20523,5.880627 V 63.930175 L 324.53706,82.307136 h -77.91829 l -13.23142,103.646044 58.80627,8.82094 2.94032,3.67539 1.47016,8.08586 v 8.82094 l -1.47016,6.61571 -2.94032,5.14555 -53.66072,8.08585 -9.55601,-18.37695 -0.73507,41.16438 -1.47016,0.73509 -1.47016,-0.73509 -0.73507,-41.16438 -9.55603,18.37695 -53.66071,-8.08585 -2.94031,-5.14555 -1.47016,-6.61571 v -8.82094 l 1.47016,-8.08586 2.94031,-2.94032 58.80626,-9.55601 -13.23141,-103.646044 h -77.9183 L 0.36753904,63.930175 V 23.50087 L 2.572769,17.620243 6.9832502,15.415009 121.65546,9.534382 h 83.06385 l 0.73508,-22.052351 2.20523,-25.727741 1.47016,-5.145548 2.20523,-2.940313 4.41048,-1.470156 h 5.14553 l 0.73509,-2.940314 -34.54868,-0.735078 v -1.470157 h 35.28375 l 1.47016,-4.41047 z"
       fill="#ccffff"
       stroke="#0014aa"
       stroke-width="0.735078"
       id="path19" />
    <rect
       style="fill:#0000ff;fill-opacity:0;fill-rule:evenodd;stroke:#000067;stroke-width:0.816148;stroke-miterlimit:4;stroke-dasharray:none;stroke-opacity:1"
       id="rect131"
       width="36.038631"
       height="59.125889"
       x="164.30324"
       y="16.477753" />
    <rect
       style="fill:#0000ff;fill-opacity:0;fill-rule:evenodd;stroke:#000067;stroke-width:0.816148;stroke-miterlimit:4;stroke-dasharray:none;stroke-opacity:1"
       id="rect131-4"
       width="36.038631"
       height="59.125889"
       x="252.33763"
       y="15.962939" />
  </g>
</svg>
