<svg id="Layer_1" data-name="Layer 1" xmlns="http://www.w3.org/2000/svg" viewBox="0 0 64 64">
  <defs>
    <style>
      .cls-1 {
        fill: #fff;
        stroke: #000;
      }
    </style>
  </defs>
  <path d="M32,3.24h7.89C39.89,0,33.58,0,32,0c-3.16,0-7.89,0-7.89,3.2"/>
  <g>
    <path class="cls-1" d="M42.87,37.65V38c0,2.28-1.55,4.88-3.49,5.64a16.49,16.49,0,0,1-5.35,1c-.73,0-1.42,0-2,0s-1.26,0-2,0a17,17,0,0,1-5.27-.94,5.86,5.86,0,0,1-3.57-5.57v-.48a.9.9,0,0,1,.85-.94h7.74L29.12,18l-.56-1.27V2.7a1.94,1.94,0,0,1,2-1.91h3a1.94,1.94,0,0,1,2,1.91v14L34.88,18l-.6,18.7H42A.9.9,0,0,1,42.87,37.65Z"/>
    <path class="cls-1" d="M30,44.64c.77,0,1.47,0,2,0H30Z"/>
    <path class="cls-1" d="M34,44.64v0H32C32.61,44.67,33.3,44.67,34,44.64Z"/>
  </g>
  <path class="cls-1" d="M62.91,16a4.45,4.45,0,0,1-3.7,4.39,134.73,134.73,0,0,1-19.38,2.05H24.17A134.73,134.73,0,0,1,4.79,20.36,4.45,4.45,0,0,1,1.09,16V13.11a1,1,0,0,1,.93-1c3.87-.2,19-1,30-1s26.11.76,30,1a1,1,0,0,1,.93,1Z"/>
</svg>
