{"accessors":[{"bufferView":0,"componentType":5126,"count":101,"min":[0.0],"max":[4.166666666666667],"type":"SCALAR"},{"bufferView":1,"componentType":5126,"count":101,"type":"VEC4"},{"bufferView":2,"componentType":5126,"count":3,"min":[0.0],"max":[0.08333333333333333],"type":"SCALAR"},{"bufferView":3,"componentType":5126,"count":3,"type":"VEC3"},{"bufferView":4,"componentType":5126,"count":1331,"min":[-0.3674056828022003,-0.30904513597488406,0.33360597491264346],"max":[0.3683227002620697,0.24885210394859315,1.142617106437683],"type":"VEC3","name":"Cube.001_vertices#0_POSITION"},{"bufferView":4,"byteOffset":12,"componentType":5120,"count":1331,"type":"VEC4","name":"Cube.001_vertices#0_TANGENT"},{"bufferView":4,"byteOffset":16,"componentType":5120,"count":1331,"type":"VEC4","name":"Cube.001_vertices#0_NORMAL"},{"bufferView":4,"byteOffset":20,"componentType":5122,"count":1331,"type":"VEC2","name":"Cube.001_vertices#0_TEXCOORD_0"},{"bufferView":4,"byteOffset":24,"componentType":5122,"count":1331,"type":"VEC2","name":"Cube.001_vertices#0_TEXCOORD_1"},{"bufferView":4,"byteOffset":28,"componentType":5123,"count":1331,"type":"VEC4","name":"Cube.001_vertices#0_COLOR_0"},{"bufferView":5,"componentType":5123,"count":2346,"type":"SCALAR","name":"Cube.001_indices#0"},{"bufferView":4,"byteOffset":47916,"componentType":5126,"count":393,"min":[-0.040813498198986056,-0.045096009969711307,-0.07059099525213242],"max":[0.04937799647450447,0.04509599134325981,0.07059100270271301],"type":"VEC3","name":"x0_COCKPIT_COFFEE_R.001_vertices#0_POSITION"},{"bufferView":4,"byteOffset":47928,"componentType":5120,"count":393,"type":"VEC4","name":"x0_COCKPIT_COFFEE_R.001_vertices#0_TANGENT"},{"bufferView":4,"byteOffset":47932,"componentType":5120,"count":393,"type":"VEC4","name":"x0_COCKPIT_COFFEE_R.001_vertices#0_NORMAL"},{"bufferView":4,"byteOffset":47936,"componentType":5122,"count":393,"type":"VEC2","name":"x0_COCKPIT_COFFEE_R.001_vertices#0_TEXCOORD_0"},{"bufferView":4,"byteOffset":47940,"componentType":5122,"count":393,"type":"VEC2","name":"x0_COCKPIT_COFFEE_R.001_vertices#0_TEXCOORD_1"},{"bufferView":4,"byteOffset":47944,"componentType":5123,"count":393,"type":"VEC4","name":"x0_COCKPIT_COFFEE_R.001_vertices#0_COLOR_0"},{"bufferView":5,"byteOffset":4692,"componentType":5123,"count":1074,"type":"SCALAR","name":"x0_COCKPIT_COFFEE_R.001_indices#0"},{"bufferView":4,"byteOffset":62064,"componentType":5126,"count":4116,"min":[-0.42990031838417055,-0.17406553030014039,-0.006734490394592285],"max":[0.42990031838417055,0.0057201385498046879,0.012209683656692505],"type":"VEC3","name":"x0_JPL_VISOR.001_vertices#0_POSITION"},{"bufferView":4,"byteOffset":62076,"componentType":5120,"count":4116,"type":"VEC4","name":"x0_JPL_VISOR.001_vertices#0_TANGENT"},{"bufferView":4,"byteOffset":62080,"componentType":5120,"count":4116,"type":"VEC4","name":"x0_JPL_VISOR.001_vertices#0_NORMAL"},{"bufferView":4,"byteOffset":62084,"componentType":5122,"count":4116,"type":"VEC2","name":"x0_JPL_VISOR.001_vertices#0_TEXCOORD_0"},{"bufferView":4,"byteOffset":62088,"componentType":5122,"count":4116,"type":"VEC2","name":"x0_JPL_VISOR.001_vertices#0_TEXCOORD_1"},{"bufferView":4,"byteOffset":62092,"componentType":5123,"count":4116,"type":"VEC4","name":"x0_JPL_VISOR.001_vertices#0_COLOR_0"},{"bufferView":5,"byteOffset":6840,"componentType":5123,"count":19212,"type":"SCALAR","name":"x0_JPL_VISOR.001_indices#2"},{"bufferView":4,"byteOffset":210240,"componentType":5126,"count":97,"min":[-0.006224252283573151,-0.000984787940979004,-0.0062054842710494999],"max":[0.006224252283573151,0.0009848475456237794,0.006205476820468903],"type":"VEC3","name":"x0_LIGHTING_Switch_Cabin_vertices#0_POSITION"},{"bufferView":4,"byteOffset":210252,"componentType":5120,"count":97,"type":"VEC4","name":"x0_LIGHTING_Switch_Cabin_vertices#0_TANGENT"},{"bufferView":4,"byteOffset":210256,"componentType":5120,"count":97,"type":"VEC4","name":"x0_LIGHTING_Switch_Cabin_vertices#0_NORMAL"},{"bufferView":4,"byteOffset":210260,"componentType":5122,"count":97,"type":"VEC2","name":"x0_LIGHTING_Switch_Cabin_vertices#0_TEXCOORD_0"},{"bufferView":4,"byteOffset":210264,"componentType":5122,"count":97,"type":"VEC2","name":"x0_LIGHTING_Switch_Cabin_vertices#0_TEXCOORD_1"},{"bufferView":4,"byteOffset":210268,"componentType":5123,"count":97,"type":"VEC4","name":"x0_LIGHTING_Switch_Cabin_vertices#0_COLOR_0"},{"bufferView":5,"byteOffset":45264,"componentType":5123,"count":504,"type":"SCALAR","name":"x0_LIGHTING_Switch_Cabin_indices#0"}],"animations":[{"name":"JPL_VISOR","channels":[{"sampler":0,"target":{"node":2,"path":"rotation"}}],"samplers":[{"input":0,"output":1,"interpolation":"LINEAR"}]},{"name":"LIGHTING_Switch_Cabin","channels":[{"sampler":0,"target":{"node":3,"path":"translation"}}],"samplers":[{"input":2,"output":3,"interpolation":"LINEAR"}]}],"asset":{"generator":"Extended Khronos glTF Blender I/O v1.0.0","version":"2.0","extensions":{"ASOBO_asset_optimized":{"BoundingBoxMax":[0.42990031838417055,0.24885210394859315,1.142617106437683],"BoundingBoxMin":[-0.42990031838417055,-0.30904513597488406,-0.07059099525213242],"MajorVersion":4,"MinorVersion":2},"ASOBO_normal_map_convention":{"tangent_space_convention":"DirectX"}}},"bufferViews":[{"buffer":0,"byteLength":404},{"buffer":0,"byteLength":1616,"byteOffset":404},{"buffer":0,"byteLength":12,"byteOffset":2020},{"buffer":0,"byteLength":36,"byteOffset":2032},{"buffer":0,"byteLength":213732,"byteStride":36,"byteOffset":2068,"target":34962,"name":"BufferViewVertexND"},{"buffer":0,"byteLength":46272,"byteOffset":215800,"target":34963,"name":"BufferViewIndex"}],"extensionsUsed":["ASOBO_normal_map_convention","MSFT_texture_dds","ASOBO_asset_optimized"],"extensionsRequired":["MSFT_texture_dds"],"materials":[{"name":"cargo.001","doubleSided":true,"pbrMetallicRoughness":{"metallicFactor":0.0,"roughnessFactor":0.5,"baseColorTexture":{"index":0}}},{"name":"CUP.001","normalTexture":{"index":1},"emissiveFactor":[0.0015475141117349268,0.0015475141117349268,0.0015475141117349268],"pbrMetallicRoughness":{"baseColorTexture":{"index":2}}},{"name":"CockpitInputs.001","normalTexture":{"index":5},"emissiveTexture":{"index":4},"pbrMetallicRoughness":{"baseColorTexture":{"index":6}}},{"name":"glare_shield_pedestal.001","normalTexture":{"index":8},"pbrMetallicRoughness":{"baseColorTexture":{"index":9}}},{"name":"GlassForVisor","alphaMode":"BLEND","pbrMetallicRoughness":{"metallicFactor":0.0,"roughnessFactor":0.0}},{"name":"top_shell","normalTexture":{"index":11},"pbrMetallicRoughness":{"baseColorTexture":{"index":12}}}],"meshes":[{"primitives":[{"attributes":{"COLOR_0":9,"NORMAL":6,"POSITION":4,"TANGENT":5,"TEXCOORD_0":7,"TEXCOORD_1":8},"indices":10,"material":0,"mode":4,"extras":{"ASOBO_primitive":{"PrimitiveCount":782,"VertexType":"VTX","VertexVersion":2}}}],"name":"Cube.001"},{"primitives":[{"attributes":{"COLOR_0":16,"NORMAL":13,"POSITION":11,"TANGENT":12,"TEXCOORD_0":14,"TEXCOORD_1":15},"indices":17,"material":1,"mode":4,"extras":{"ASOBO_primitive":{"PrimitiveCount":358,"VertexType":"VTX","VertexVersion":2}}}],"name":"x0_COCKPIT_COFFEE_R.001"},{"primitives":[{"attributes":{"COLOR_0":23,"NORMAL":20,"POSITION":18,"TANGENT":19,"TEXCOORD_0":21,"TEXCOORD_1":22},"indices":24,"material":2,"mode":4,"extras":{"ASOBO_primitive":{"PrimitiveCount":3780,"VertexType":"VTX","VertexVersion":2}}},{"attributes":{"COLOR_0":23,"NORMAL":20,"POSITION":18,"TANGENT":19,"TEXCOORD_0":21,"TEXCOORD_1":22},"indices":24,"material":3,"mode":4,"extras":{"ASOBO_primitive":{"PrimitiveCount":2468,"StartIndex":11340,"VertexType":"VTX","VertexVersion":2}}},{"attributes":{"COLOR_0":23,"NORMAL":20,"POSITION":18,"TANGENT":19,"TEXCOORD_0":21,"TEXCOORD_1":22},"indices":24,"material":4,"mode":4,"extras":{"ASOBO_primitive":{"PrimitiveCount":156,"StartIndex":18744,"VertexType":"VTX","VertexVersion":2}}}],"name":"x0_JPL_VISOR.001"},{"primitives":[{"attributes":{"COLOR_0":30,"NORMAL":27,"POSITION":25,"TANGENT":26,"TEXCOORD_0":28,"TEXCOORD_1":29},"indices":31,"material":5,"mode":4,"extras":{"ASOBO_primitive":{"PrimitiveCount":168,"VertexType":"VTX","VertexVersion":2}}}],"name":"x0_LIGHTING_Switch_Cabin"}],"nodes":[{"translation":[0.0,0.13593637943267823,-1.214817762374878],"rotation":[0.04046035557985306,0.0,0.0,0.9991811513900756],"scale":[0.8279199600219727,0.8279199600219727,0.8279199600219727],"mesh":0,"name":"CARGO"},{"translation":[0.003206111490726471,-0.1404138207435608,0.33596134185791018],"rotation":[0.29489612579345705,0.6518782377243042,-0.6365325450897217,0.2879539728164673],"scale":[0.8999999761581421,0.8999999761581421,0.8999999761581421],"mesh":1,"name":"COCKPIT_COFFEE_R"},{"translation":[0.0,0.7385162711143494,0.4501153826713562],"rotation":[0.8427876234054565,0.0,0.0,1.0],"mesh":2,"name":"JPL_VISOR"},{"translation":[-0.020752375945448877,0.7121812105178833,-0.07753610610961914],"mesh":3,"name":"LIGHTING_Switch_Cabin"}],"scene":0,"scenes":[{"nodes":[0,1,2,3],"name":"Scene","extras":{"extensionsRequired":["MSFT_texture_dds"],"extensionsUsed":["ASOBO_normal_map_convention","ASOBO_tags","ASOBO_material_invisible","ASOBO_material_glass","ASOBO_material_blend_gbuffer","ASOBO_material_detail_map","ASOBO_material_shadow_options","ASOBO_material_draw_order","ASOBO_material_environment_occluder","ASOBO_material_kitty_glass","MSFT_texture_dds","ASOBO_asset_optimized"],"glTF2ExportSettings":{"export_apply":1,"export_extras":1,"export_generate_guid":1,"export_image_format":"AUTO","export_texture_dir":"../texture","export_xml":1,"export_xml_file":"models","use_selection":1},"gltf_filename_no_ext":"C152_cockpit_LOD00"}}],"textures":[{"extensions":{"MSFT_texture_dds":{"source":0}}},{"extensions":{"MSFT_texture_dds":{"source":1}}},{"extensions":{"MSFT_texture_dds":{"source":2}}},{"source":3},{"extensions":{"MSFT_texture_dds":{"source":4}}},{"extensions":{"MSFT_texture_dds":{"source":5}}},{"extensions":{"MSFT_texture_dds":{"source":6}}},{"source":7},{"extensions":{"MSFT_texture_dds":{"source":8}}},{"extensions":{"MSFT_texture_dds":{"source":9}}},{"source":10},{"extensions":{"MSFT_texture_dds":{"source":11}}},{"extensions":{"MSFT_texture_dds":{"source":12}}},{"source":13}],"buffers":[{"byteLength":262072,"uri":"Models.bin"}],"images":[{"uri":"CARGOCOMANCHE1.PNG.DDS","name":"cargocomanche1","extras":"ASOBO_image_converted_meta"},{"uri":"CUP_LOW2_NORMAL_PNG.PNG.DDS","name":"CUP_LOW2_NORMAL_PNG","extras":"ASOBO_image_converted_meta"},{"uri":"CUP_LOW2_ALBEDO_PNG.PNG.DDS","name":"CUP_LOW2_ALBEDO_PNG","extras":"ASOBO_image_converted_meta"},{"uri":"CUP_LOW2_METAL_PNG.PNG","name":"CUP_LOW2_METAL_PNG"},{"uri":"CESSNA_152_COCKPIT_INPUTS_EMIS_TIF.PNG.DDS","name":"CESSNA_152_COCKPIT_INPUTS_EMIS.TIF","extras":"ASOBO_image_converted_meta"},{"uri":"CESSNA_152_COCKPIT_INPUTS_NORM_PNG.PNG.DDS","name":"CESSNA_152_COCKPIT_INPUTS_NORM.PNG","extras":"ASOBO_image_converted_meta"},{"uri":"CESSNA_152_COCKPIT_INPUTS_ALBD_PNG.PNG.DDS","name":"CESSNA_152_COCKPIT_INPUTS_ALBD.PNG","extras":"ASOBO_image_converted_meta"},{"uri":"CESSNA_152_COCKPIT_INPUTS_COMP_PNG.PNG","name":"CESSNA_152_COCKPIT_INPUTS_COMP.PNG"},{"uri":"CESSNA_152_COCKPIT_GLARE_SHIELD_PEDESTAL_NORM_PNG.PNG.DDS","name":"CESSNA_152_COCKPIT_GLARE_SHIELD_PEDESTAL_NORM.PNG","extras":"ASOBO_image_converted_meta"},{"uri":"CESSNA_152_COCKPIT_GLARE_SHIELD_PEDESTAL_ALBD_PNG.PNG.DDS","name":"CESSNA_152_COCKPIT_GLARE_SHIELD_PEDESTAL_ALBD.PNG","extras":"ASOBO_image_converted_meta"},{"uri":"CESSNA_152_COCKPIT_GLARE_SHIELD_PEDESTAL_COMP_PNG.PNG","name":"CESSNA_152_COCKPIT_GLARE_SHIELD_PEDESTAL_COMP.PNG"},{"uri":"CESSNA_152_COCKPIT_TOP_SHELL_NORM_PNG.PNG.DDS","name":"CESSNA_152_COCKPIT_TOP_SHELL_NORM.PNG","extras":"ASOBO_image_converted_meta"},{"uri":"CESSNA_152_COCKPIT_TOP_SHELL_ALBD_PNG.PNG.DDS","name":"CESSNA_152_COCKPIT_TOP_SHELL_ALBD.PNG","extras":"ASOBO_image_converted_meta"},{"uri":"CESSNA_152_COCKPIT_TOP_SHELL_COMP_PNG.PNG","name":"CESSNA_152_COCKPIT_TOP_SHELL_COMP.PNG"}]}
