{"accessors":[{"bufferView":0,"componentType":5126,"count":101,"min":[0.0],"max":[4.166666666666667],"type":"SCALAR"},{"bufferView":1,"componentType":5126,"count":101,"type":"VEC4"},{"bufferView":2,"componentType":5126,"count":1995,"min":[-0.42866379022598269,-0.1740655153989792,-0.006734490394592285],"max":[-0.05189201608300209,0.005720153450965881,0.012209683656692505],"type":"VEC3","name":"x0_Sun_visors_CoPilot_vertices#0_POSITION"},{"bufferView":2,"byteOffset":12,"componentType":5120,"count":1995,"type":"VEC4","name":"x0_Sun_visors_CoPilot_vertices#0_TANGENT"},{"bufferView":2,"byteOffset":16,"componentType":5120,"count":1995,"type":"VEC4","name":"x0_Sun_visors_CoPilot_vertices#0_NORMAL"},{"bufferView":2,"byteOffset":20,"componentType":5122,"count":1995,"type":"VEC2","name":"x0_Sun_visors_CoPilot_vertices#0_TEXCOORD_0"},{"bufferView":2,"byteOffset":24,"componentType":5122,"count":1995,"type":"VEC2","name":"x0_Sun_visors_CoPilot_vertices#0_TEXCOORD_1"},{"bufferView":2,"byteOffset":28,"componentType":5123,"count":1995,"type":"VEC4","name":"x0_Sun_visors_CoPilot_vertices#0_COLOR_0"},{"bufferView":3,"componentType":5123,"count":9354,"type":"SCALAR","name":"x0_Sun_visors_CoPilot_indices#2"},{"bufferView":2,"byteOffset":71820,"componentType":5126,"count":2058,"min":[0.05189201608300209,-0.1740655153989792,-0.006734490394592285],"max":[0.42990031838417055,0.005720153450965881,0.012209683656692505],"type":"VEC3","name":"x0_Sun_visors_Pilot_vertices#0_POSITION"},{"bufferView":2,"byteOffset":71832,"componentType":5120,"count":2058,"type":"VEC4","name":"x0_Sun_visors_Pilot_vertices#0_TANGENT"},{"bufferView":2,"byteOffset":71836,"componentType":5120,"count":2058,"type":"VEC4","name":"x0_Sun_visors_Pilot_vertices#0_NORMAL"},{"bufferView":2,"byteOffset":71840,"componentType":5122,"count":2058,"type":"VEC2","name":"x0_Sun_visors_Pilot_vertices#0_TEXCOORD_0"},{"bufferView":2,"byteOffset":71844,"componentType":5122,"count":2058,"type":"VEC2","name":"x0_Sun_visors_Pilot_vertices#0_TEXCOORD_1"},{"bufferView":2,"byteOffset":71848,"componentType":5123,"count":2058,"type":"VEC4","name":"x0_Sun_visors_Pilot_vertices#0_COLOR_0"},{"bufferView":3,"byteOffset":18708,"componentType":5123,"count":9606,"type":"SCALAR","name":"x0_Sun_visors_Pilot_indices#2"}],"animations":[{"name":"JPL_VISOR","channels":[{"sampler":0,"target":{"node":0,"path":"rotation"}}],"samplers":[{"input":0,"output":1,"interpolation":"LINEAR"}]}],"asset":{"generator":"Extended Khronos glTF Blender I/O v1.0.0","copyright":"N95JPL","version":"2.0","extensions":{"ASOBO_asset_optimized":{"BoundingBoxMax":[0.42990031838417055,0.005720153450965881,0.012209683656692505],"BoundingBoxMin":[-0.42866379022598269,-0.1740655153989792,-0.006734490394592285],"MajorVersion":4,"MinorVersion":2},"ASOBO_normal_map_convention":{"tangent_space_convention":"DirectX"}}},"bufferViews":[{"buffer":0,"byteLength":404},{"buffer":0,"byteLength":1616,"byteOffset":404},{"buffer":0,"byteLength":145908,"byteStride":36,"byteOffset":2020,"target":34962,"name":"BufferViewVertexND"},{"buffer":0,"byteLength":37920,"byteOffset":147928,"target":34963,"name":"BufferViewIndex"}],"extensionsUsed":["ASOBO_normal_map_convention","MSFT_texture_dds","ASOBO_asset_optimized"],"extensionsRequired":["MSFT_texture_dds"],"materials":[{"name":"GlassForVisor","alphaMode":"BLEND","pbrMetallicRoughness":{"baseColorFactor":[1.0,1.0,1.0,0.009999999776482582],"metallicFactor":0.0,"roughnessFactor":0.0}},{"name":"glare_shield_pedestal","normalTexture":{"index":0},"occlusionTexture":{"index":1},"pbrMetallicRoughness":{"baseColorTexture":{"index":2},"metallicRoughnessTexture":{"index":1}}},{"name":"GlassForVisor.001","alphaMode":"BLEND","pbrMetallicRoughness":{"baseColorFactor":[0.014669548720121384,0.014669548720121384,0.014669548720121384,1.0]}}],"meshes":[{"primitives":[{"attributes":{"COLOR_0":7,"NORMAL":4,"POSITION":2,"TANGENT":3,"TEXCOORD_0":5,"TEXCOORD_1":6},"indices":8,"material":0,"mode":4,"extras":{"ASOBO_primitive":{"PrimitiveCount":1890,"VertexType":"VTX","VertexVersion":2}}},{"attributes":{"COLOR_0":7,"NORMAL":4,"POSITION":2,"TANGENT":3,"TEXCOORD_0":5,"TEXCOORD_1":6},"indices":8,"material":1,"mode":4,"extras":{"ASOBO_primitive":{"PrimitiveCount":1150,"StartIndex":5670,"VertexType":"VTX","VertexVersion":2}}},{"attributes":{"COLOR_0":7,"NORMAL":4,"POSITION":2,"TANGENT":3,"TEXCOORD_0":5,"TEXCOORD_1":6},"indices":8,"material":2,"mode":4,"extras":{"ASOBO_primitive":{"PrimitiveCount":78,"StartIndex":9120,"VertexType":"VTX","VertexVersion":2}}}],"name":"x0_Sun_visors_CoPilot"},{"primitives":[{"attributes":{"COLOR_0":14,"NORMAL":11,"POSITION":9,"TANGENT":10,"TEXCOORD_0":12,"TEXCOORD_1":13},"indices":15,"material":0,"mode":4,"extras":{"ASOBO_primitive":{"PrimitiveCount":1890,"VertexType":"VTX","VertexVersion":2}}},{"attributes":{"COLOR_0":14,"NORMAL":11,"POSITION":9,"TANGENT":10,"TEXCOORD_0":12,"TEXCOORD_1":13},"indices":15,"material":1,"mode":4,"extras":{"ASOBO_primitive":{"PrimitiveCount":1234,"StartIndex":5670,"VertexType":"VTX","VertexVersion":2}}},{"attributes":{"COLOR_0":14,"NORMAL":11,"POSITION":9,"TANGENT":10,"TEXCOORD_0":12,"TEXCOORD_1":13},"indices":15,"material":2,"mode":4,"extras":{"ASOBO_primitive":{"PrimitiveCount":78,"StartIndex":9372,"VertexType":"VTX","VertexVersion":2}}}],"name":"x0_Sun_visors_Pilot"}],"nodes":[{"translation":[0.0,0.7385162711143494,0.4501153826713562],"rotation":[0.9427876472473145,0.0,0.0,1.0],"mesh":0,"name":"Sun_visors_CoPilot"},{"translation":[0.0,0.7385162711143494,0.4501153826713562],"rotation":[-0.2073369026184082,0.0,0.0,1.0],"mesh":1,"name":"Sun_visors_Pilot"}],"scene":0,"scenes":[{"nodes":[0,1],"name":"Scene","extras":{"glTF2ExportSettings":{"export_apply":1,"export_copyright":"N95JPL","export_extras":1,"export_generate_guid":1,"export_lods":0,"export_texture_dir":"../texture","export_xml":1,"export_xml_file":"model","use_selection":1}}}],"textures":[{"extensions":{"MSFT_texture_dds":{"source":0}}},{"extensions":{"MSFT_texture_dds":{"source":1}}},{"extensions":{"MSFT_texture_dds":{"source":2}}},{"source":3}],"buffers":[{"byteLength":185848,"uri":"Models.bin"}],"images":[{"uri":"CESSNA_152_COCKPIT_GLARE_SHIELD_PEDESTAL_NORM.PNG.DDS","name":"CESSNA_152_COCKPIT_GLARE_SHIELD_PEDESTAL_NORM","extras":"ASOBO_image_converted_meta"},{"uri":"CESSNA_152_COCKPIT_GLARE_SHIELD_PEDESTAL_COMP.PNG.DDS","name":"CESSNA_152_COCKPIT_GLARE_SHIELD_PEDESTAL_COMP","extras":"ASOBO_image_converted_meta"},{"uri":"CESSNA_152_COCKPIT_GLARE_SHIELD_PEDESTAL_ALBD.PNG.DDS","name":"CESSNA_152_COCKPIT_GLARE_SHIELD_PEDESTAL_ALBD","extras":"ASOBO_image_converted_meta"},{"uri":"ADF_AS87_SCREEN_EMIS.PNG","name":"ADF_AS87_SCREEN_EMIS"}]}
