<svg xmlns="http://www.w3.org/2000/svg" xmlns:xlink="http://www.w3.org/1999/xlink" viewBox="0 0 1723.93 467.69">
  <defs>
    <style>
      .a {
        fill: #fff;
      }

      .b {
        fill-rule: evenodd;
        fill: url(#a);
      }
    </style>
    <linearGradient id="a" x1="1676.83" y1="-50.86" x2="1676.83" y2="-216.55" gradientUnits="userSpaceOnUse">
      <stop offset="0" stop-color="#09bcef"/>
      <stop offset="1" stop-color="#00467f"/>
    </linearGradient>
  </defs>
  <path class="a" d="M614.73,19.05c-2.86-5.77-10.49-10.48-17-10.48H584.66c-6.44,0-14,4.76-16.77,10.57l-104,217.36c-2.89,5.75.25,9.87,6.71,9.87h24c9.49,0,13.84-4.32,16.41-9.61s8.31-16.78,9.41-19.13c1.48-3.17,6.05-5.12,12.5-5.11l111.94.06c6.46,0,10.6,1.24,12.51,5,1.24,2.48,7,12.82,9.78,18.47s7.6,10.27,16.84,10.27h34.89c6.45,0,9.27-4.9,7-9.45S614.73,19.05,614.73,19.05ZM549,179c-6.44,0-9.48-4.8-6.76-10.64l41-87.83c2.73-5.85,7.14-5.81,9.8,0L633,168.35c2.66,5.86-.43,10.66-6.87,10.66ZM1418.66,20.73V236.36c0,5.94,5.27,10,11.73,10h28.43c6.45,0,11.72-4.12,11.72-10.57V20.29c0-6.46-4.16-11.72-10.61-11.72h-29.54C1423.93,8.57,1418.66,12.54,1418.66,20.73ZM942.22,155.79c-3.7-5.28-1.67-11.11,4.51-12.95,0,0,24.57-7.35,36.32-17.89s17.68-25.85,17.68-45.74q0-19.51-6.8-32.85a56.16,56.16,0,0,0-19.48-21.7q-12.68-8.39-30.34-12.26c-11.79-2.55-27.7-3.3-27.7-3.3-6.45-.29-17-.53-23.43-.53H774.91A11.75,11.75,0,0,0,763.2,20.29V235.8c0,6.45,5.28,10.57,11.71,10.57h27.94c6.45,0,11.73-4.12,11.73-10.57,0,0,0-85.72.07-85.72s.08-.05.08-.11,53-.13,53-.13c6.44,0,14.76,4.31,18.49,9.59l55,77.41c5.11,6.86,10,9.53,16.42,9.53H994.1c6.45,0,7.46-6.08,5.23-9.24S942.22,155.79,942.22,155.79ZM920,112a97,97,0,0,1-15.39,2c-6.43.29-17,.51-23.42.51H826.45a11.75,11.75,0,0,1-11.72-11.72V59.14a11.75,11.75,0,0,1,11.72-11.72h54.74c6.45,0,17,.23,23.42.5a96.39,96.39,0,0,1,15.39,2c7.23,1.67,13,4,17.17,7a26.3,26.3,0,0,1,9,10.66,34.39,34.39,0,0,1,0,26.76,26.21,26.21,0,0,1-9,10.65C933,108,927.23,110.37,920,112ZM1767.72,8.57c-6.44,0-11.66,4.25-11.66,10.46,0,3,.07,137.85.07,137.85,0,6.46-3.65,7.93-8.13,3.28L1610,17a27,27,0,0,0-19.87-8.42h-26c-8.17,0-11.74,4.35-11.74,8.77V237.77c0,4.4,4.19,8.6,10.65,8.6h26c6.43,0,11-3.51,11-9.45,0-3,.13-145.22.13-145.22,0-6.44,3.65-7.91,8.11-3.26l143.93,149.62c4.56,4.58,10.12,8.31,20,8.31h19.53a11.75,11.75,0,0,0,11.73-11.73V20.29A11.74,11.74,0,0,0,1791.7,8.57ZM1205,143c-3.14,5.63-8.28,5.61-11.38,0l-67.46-123.9a18.58,18.58,0,0,0-16.95-10.48h-36.59a11.75,11.75,0,0,0-11.74,11.72V235.52c0,6.44,4.24,10.85,11.74,10.85h22.74c6.46,0,11.11-4.07,11.11-10.29,0-3,.09-156.55.34-156.55S1191,236,1191,236a7.57,7.57,0,0,0,13.61,0S1289.24,80,1289.49,80s.17,151.62.17,156.1c0,6.22,5,10.29,11.43,10.29h26.2c6.46,0,11.72-3.22,11.72-11.73V20.29a11.74,11.74,0,0,0-11.72-11.72h-35.08a19.08,19.08,0,0,0-17.54,10.17Z" transform="translate(-164.73 216.55)"/>
  <path class="a" d="M164.73,127.25c0,116.13,118.77,122,142.58,122,78.82,0,112.13-21.3,113.51-22.22a20.78,20.78,0,0,0,10.93-19V128a13.41,13.41,0,0,0-13.4-13.4h-99c-7.41,0-12.27,6-12.27,13.4v8.3c0,7.4,4.86,13.42,12.27,13.42h57.27a10,10,0,0,1,10,10s-.05,35.13-.05,37.36c-11.32,4.62-62.85,19.68-104.26,9.8-60.07-14.37-64.75-63.92-64.75-78.77,0-12.45,3.73-74.87,77.5-81.18,59.71-5.11,99,19,99.43,19.23,7,3.64,14.28,1.05,18.19-6.38,0-.06,7.45-15.1,7.45-15.1,3.09-6.19,2.06-12.6-5.5-17.73-.5-.28-42.36-23-107.32-23C168.72,3.94,164.73,114.64,164.73,127.25Z" transform="translate(-164.73 216.55)"/>
  <path class="b" d="M1754.6-50.86H1599.06a15.18,15.18,0,0,1-13.45-7.77,15.18,15.18,0,0,1,0-15.52l77.78-134.63a15.12,15.12,0,0,1,13.44-7.76,15.15,15.15,0,0,1,13.44,7.76L1768-74.16a15.15,15.15,0,0,1,0,15.53A15.18,15.18,0,0,1,1754.6-50.86Z" transform="translate(-164.73 216.55)"/>
  <path class="a" d="M1861.55,196.9A27.12,27.12,0,1,1,1834.42,224,27.15,27.15,0,0,1,1861.55,196.9Zm.07,50.18c12.47,0,21.86-10.07,21.86-23.07S1874.09,201,1861.62,201s-22,10.07-22,23.06S1849,247.08,1861.62,247.08Zm-10.45-39h12.17c7.29,0,10.9,2.93,10.9,8.94,0,5.11-3.23,8.79-8.19,8.79l9,14.05h-5.49l-8.86-14.05h-4.36v14.05h-5.19Zm5.19,13.67h6.16c4,0,6.53-.82,6.53-4.95,0-3.62-3.23-4.67-6.53-4.67h-6.16Z" transform="translate(-164.73 216.55)"/>
</svg>
