{"accessors":[{"bufferView":0,"componentType":5126,"count":35768,"min":[-3.1878459453582765,-3.1937060356140138,-8.547439575195313],"max":[3.1995809078216554,3.1937201023101808,0.0020039998926222326],"type":"VEC3","name":"CoffeeCup_vertices#0_POSITION"},{"bufferView":0,"byteOffset":12,"componentType":5120,"count":35768,"type":"VEC4","name":"CoffeeCup_vertices#0_TANGENT"},{"bufferView":0,"byteOffset":16,"componentType":5120,"count":35768,"type":"VEC4","name":"CoffeeCup_vertices#0_NORMAL"},{"bufferView":0,"byteOffset":20,"componentType":5122,"count":35768,"type":"VEC2","name":"CoffeeCup_vertices#0_TEXCOORD_0"},{"bufferView":0,"byteOffset":24,"componentType":5122,"count":35768,"type":"VEC2","name":"CoffeeCup_vertices#0_TEXCOORD_1"},{"bufferView":0,"byteOffset":28,"componentType":5123,"count":35768,"type":"VEC4","name":"CoffeeCup_vertices#0_COLOR_0"},{"bufferView":1,"componentType":5123,"count":117942,"type":"SCALAR","name":"CoffeeCup_indices#2"}],"asset":{"generator":"Extended Khronos glTF Blender I/O v1.0.0","version":"2.0","extensions":{"ASOBO_asset_optimized":{"BoundingBoxMax":[3.1995809078216554,3.1937201023101808,0.0020039998926222326],"BoundingBoxMin":[-3.1878459453582765,-3.1937060356140138,-8.547439575195313],"MajorVersion":4,"MinorVersion":2},"ASOBO_normal_map_convention":{"tangent_space_convention":"DirectX"}}},"bufferViews":[{"buffer":0,"byteLength":1287648,"byteStride":36,"target":34962,"name":"BufferViewVertexND"},{"buffer":0,"byteLength":235884,"byteOffset":1287648,"target":34963,"name":"BufferViewIndex"}],"extensionsUsed":["ASOBO_normal_map_convention","ASOBO_material_detail_map","MSFT_texture_dds","ASOBO_asset_optimized"],"extensionsRequired":["MSFT_texture_dds"],"materials":[{"name":"card_board","occlusionTexture":{"index":1},"pbrMetallicRoughness":{"baseColorTexture":{"index":2},"metallicRoughnessTexture":{"index":1}},"extensions":{"ASOBO_material_detail_map":{"detailColorTexture":{"index":0}}}},{"name":"black_plastic","normalTexture":{"index":3},"pbrMetallicRoughness":{"metallicFactor":0.0,"roughnessFactor":0.5,"baseColorTexture":{"index":4}}},{"name":"white_body","occlusionTexture":{"index":7},"pbrMetallicRoughness":{"baseColorTexture":{"index":8},"metallicRoughnessTexture":{"index":7}},"extensions":{"ASOBO_material_detail_map":{"detailColorTexture":{"index":5},"detailNormalTexture":{"index":6}}}}],"meshes":[{"primitives":[{"attributes":{"COLOR_0":5,"NORMAL":2,"POSITION":0,"TANGENT":1,"TEXCOORD_0":3,"TEXCOORD_1":4},"indices":6,"material":0,"mode":4,"extras":{"ASOBO_primitive":{"PrimitiveCount":4000,"VertexType":"VTX","VertexVersion":2}}},{"attributes":{"COLOR_0":5,"NORMAL":2,"POSITION":0,"TANGENT":1,"TEXCOORD_0":3,"TEXCOORD_1":4},"indices":6,"material":1,"mode":4,"extras":{"ASOBO_primitive":{"PrimitiveCount":28530,"StartIndex":12000,"VertexType":"VTX","VertexVersion":2}}},{"attributes":{"COLOR_0":5,"NORMAL":2,"POSITION":0,"TANGENT":1,"TEXCOORD_0":3,"TEXCOORD_1":4},"indices":6,"material":2,"mode":4,"extras":{"ASOBO_primitive":{"PrimitiveCount":6784,"StartIndex":97590,"VertexType":"VTX","VertexVersion":2}}}],"name":"CoffeeCup"}],"nodes":[{"rotation":[0.7071068286895752,0.0,0.0,0.7071067094802856],"mesh":0,"name":"CoffeeCup"}],"scene":0,"scenes":[{"nodes":[0],"name":"Scene"}],"textures":[{"extensions":{"MSFT_texture_dds":{"source":0}}},{"extensions":{"MSFT_texture_dds":{"source":1}}},{"extensions":{"MSFT_texture_dds":{"source":0}}},{"extensions":{"MSFT_texture_dds":{"source":2}}},{"extensions":{"MSFT_texture_dds":{"source":3}}},{"extensions":{"MSFT_texture_dds":{"source":0}}},{"extensions":{"MSFT_texture_dds":{"source":3}}},{"extensions":{"MSFT_texture_dds":{"source":3}}},{"extensions":{"MSFT_texture_dds":{"source":0}}}],"buffers":[{"byteLength":1523532,"uri":"CoffeeCup.bin"}],"images":[{"uri":"COFFEE CUP.PNG.DDS","name":"coffee cup","extras":"ASOBO_image_converted_meta"},{"uri":"METALLIC.PNG.DDS","name":"Metallic","extras":"ASOBO_image_converted_meta"},{"uri":"CAP ROUGHNESS.PNG.DDS","name":"cap roughness","extras":"ASOBO_image_converted_meta"},{"uri":"METALLIC-1.PNG.DDS","name":"Metallic","extras":"ASOBO_image_converted_meta"}]}
